<svg xmlns="http://www.w3.org/2000/svg" fill="none" viewBox="0 0 174 31" height="31" width="174">
<path fill="#ECC601" d="M30.107 11.7945C29.981 11.4131 29.7381 11.0771 29.4102 10.8308C29.0822 10.5845 28.6846 10.4392 28.2694 10.4141L20.7927 9.91758L18.0237 3.19687C17.8724 2.82681 17.6093 2.50894 17.2682 2.28442C16.9272 2.05989 16.5237 1.93903 16.1105 1.9375C15.6972 1.93903 15.2939 2.05989 14.9528 2.28442C14.6117 2.50894 14.3485 2.82681 14.1973 3.19687L11.3778 9.95391L3.95162 10.4141C3.53689 10.4408 3.14005 10.5867 2.81243 10.8328C2.48481 11.0789 2.24149 11.4139 2.11395 11.7945C1.98297 12.181 1.97532 12.5963 2.09198 12.987C2.20864 13.3776 2.44426 13.7257 2.76847 13.9863L8.48287 18.6363L6.78366 25.0664C6.66608 25.5014 6.68725 25.9603 6.84437 26.3836C7.0015 26.8069 7.28734 27.1749 7.66473 27.4398C8.03105 27.6928 8.46748 27.8347 8.91817 27.8478C9.36887 27.8606 9.81334 27.7439 10.1947 27.5125L16.0979 23.916H16.123L22.4794 27.7789C22.8055 27.9828 23.1857 28.092 23.5744 28.0938C23.892 28.0914 24.2047 28.0189 24.4886 27.882C24.7725 27.7453 25.0199 27.5477 25.212 27.3043C25.404 27.0611 25.5355 26.7787 25.5964 26.479C25.6573 26.1792 25.646 25.87 25.5632 25.575L23.7633 18.5394L29.4524 13.9863C29.7767 13.7257 30.0123 13.3776 30.1289 12.987C30.2456 12.5963 30.238 12.181 30.107 11.7945Z"></path>
<path fill="#ECC601" d="M66.0972 11.857C65.9712 11.4756 65.7283 11.1396 65.4004 10.8933C65.0724 10.647 64.6748 10.5017 64.2596 10.4766L56.7829 9.98008L54.0139 3.25937C53.8626 2.88931 53.5995 2.57144 53.2584 2.34692C52.9173 2.12239 52.5139 2.00153 52.1007 2C51.6874 2.00153 51.284 2.12239 50.9429 2.34692C50.6019 2.57144 50.3386 2.88931 50.1875 3.25937L47.368 10.0164L39.9418 10.4766C39.5271 10.5033 39.1303 10.6492 38.8026 10.8953C38.475 11.1414 38.2317 11.4764 38.1041 11.857C37.9732 12.2435 37.9656 12.6588 38.0822 13.0495C38.1989 13.4401 38.4344 13.7882 38.7586 14.0488L44.473 18.6988L42.7738 25.1289C42.6563 25.5639 42.6774 26.0228 42.8345 26.4461C42.9918 26.8694 43.2776 27.2374 43.6549 27.5023C44.0213 27.7553 44.4577 27.8972 44.9084 27.9103C45.3591 27.9231 45.8035 27.8064 46.1848 27.575L52.0881 23.9785H52.1132L58.4695 27.8414C58.7956 28.0453 59.1759 28.1545 59.5646 28.1562C59.8822 28.1539 60.1949 28.0814 60.4788 27.9445C60.7626 27.8078 61.0101 27.6102 61.2022 27.3668C61.3942 27.1236 61.5257 26.8412 61.5866 26.5415C61.6475 26.2417 61.6362 25.9325 61.5534 25.6375L59.7534 18.6019L65.4426 14.0488C65.7669 13.7882 66.0025 13.4401 66.1191 13.0495C66.2358 12.6588 66.2282 12.2435 66.0972 11.857Z"></path>
<path fill="#ECC601" d="M100.996 11.7945C100.87 11.4131 100.627 11.0771 100.299 10.8308C99.9708 10.5845 99.5732 10.4392 99.158 10.4141L91.6813 9.91758L88.9123 3.19687C88.761 2.82681 88.4979 2.50894 88.1569 2.28442C87.8158 2.05989 87.4124 1.93903 86.9991 1.9375C86.5859 1.93903 86.1824 2.05989 85.8414 2.28442C85.5003 2.50894 85.237 2.82681 85.0859 3.19687L82.2665 9.95391L74.8402 10.4141C74.4255 10.4408 74.0287 10.5867 73.701 10.8328C73.3735 11.0789 73.1302 11.4139 73.0026 11.7945C72.8716 12.181 72.864 12.5963 72.9807 12.987C73.0973 13.3776 73.3329 13.7257 73.657 13.9863L79.3715 18.6363L77.6722 25.0664C77.5548 25.5014 77.5759 25.9603 77.733 26.3836C77.8902 26.8069 78.176 27.1749 78.5533 27.4398C78.9197 27.6928 79.3562 27.8347 79.8068 27.8478C80.2576 27.8606 80.7019 27.7439 81.0833 27.5125L86.9865 23.916H87.0117L93.368 27.7789C93.6941 27.9828 94.0743 28.092 94.4631 28.0938C94.7806 28.0914 95.0933 28.0189 95.3772 27.882C95.6611 27.7453 95.9086 27.5477 96.1006 27.3043C96.2926 27.0611 96.4241 26.7787 96.485 26.479C96.5459 26.1792 96.5346 25.87 96.4518 25.575L94.6519 18.5394L100.341 13.9863C100.665 13.7257 100.901 13.3776 101.018 12.987C101.134 12.5963 101.127 12.181 100.996 11.7945Z"></path>
<path fill="#ECC601" d="M136.441 11.7945C136.315 11.4131 136.072 11.0771 135.744 10.8308C135.416 10.5845 135.019 10.4392 134.603 10.4141L127.127 9.91758L124.358 3.19687C124.206 2.82681 123.943 2.50894 123.602 2.28442C123.261 2.05989 122.858 1.93903 122.444 1.9375C122.031 1.93903 121.628 2.05989 121.287 2.28442C120.946 2.50894 120.682 2.82681 120.531 3.19687L117.712 9.95391L110.286 10.4141C109.871 10.4408 109.474 10.5867 109.146 10.8328C108.819 11.0789 108.575 11.4139 108.448 11.7945C108.317 12.181 108.309 12.5963 108.426 12.987C108.543 13.3776 108.778 13.7257 109.102 13.9863L114.817 18.6363L113.118 25.0664C113 25.5014 113.021 25.9603 113.178 26.3836C113.336 26.8069 113.621 27.1749 113.999 27.4398C114.365 27.6928 114.801 27.8347 115.252 27.8478C115.703 27.8606 116.147 27.7439 116.529 27.5125L122.432 23.916H122.457L128.813 27.7789C129.139 27.9828 129.52 28.092 129.908 28.0938C130.226 28.0914 130.539 28.0189 130.823 27.882C131.106 27.7453 131.354 27.5477 131.546 27.3043C131.738 27.0611 131.869 26.7787 131.93 26.479C131.991 26.1792 131.98 25.87 131.897 25.575L130.097 18.5394L135.786 13.9863C136.111 13.7257 136.346 13.3776 136.463 12.987C136.58 12.5963 136.572 12.181 136.441 11.7945Z"></path>
<path fill="#ECC601" d="M171.887 11.7945C171.76 11.4131 171.518 11.0771 171.189 10.8308C170.861 10.5845 170.464 10.4392 170.049 10.4141L162.572 9.91758L159.803 3.19687C159.652 2.82681 159.389 2.50894 159.047 2.28442C158.706 2.05989 158.303 1.93903 157.89 1.9375C157.476 1.93903 157.073 2.05989 156.732 2.28442C156.391 2.50894 156.128 2.82681 155.977 3.19687L153.157 9.95391L145.731 10.4141C145.316 10.4408 144.919 10.5867 144.592 10.8328C144.264 11.0789 144.021 11.4139 143.893 11.7945C143.762 12.181 143.755 12.5963 143.871 12.987C143.988 13.3776 144.223 13.7257 144.548 13.9863L150.262 18.6363L148.563 25.0664C148.445 25.5014 148.467 25.9603 148.624 26.3836C148.781 26.8069 149.067 27.1749 149.444 27.4398C149.81 27.6928 150.247 27.8347 150.697 27.8478C151.148 27.8606 151.593 27.7439 151.974 27.5125L157.877 23.916H157.902L164.258 27.7789C164.586 27.9828 164.964 28.092 165.354 28.0938C165.671 28.0914 165.984 28.0189 166.268 27.882C166.551 27.7453 166.799 27.5477 166.991 27.3043C167.183 27.0611 167.315 26.7787 167.376 26.479C167.437 26.1792 167.426 25.87 167.342 25.575L165.543 18.5394L171.231 13.9863C171.555 13.7257 171.792 13.3776 171.908 12.987C172.026 12.5963 172.018 12.181 171.887 11.7945Z"></path>
</svg>
