<svg xmlns="http://www.w3.org/2000/svg" fill="none" viewBox="0 0 81 80" height="80" width="81">
<path stroke-miterlimit="10" stroke-width="2" stroke="white" d="M40.9075 70C40.9075 70 68.9075 61 68.9075 15C52.9075 15 40.9075 9 40.9075 9C40.9075 9 28.9075 15 12.9075 15C12.9075 61 40.9075 70 40.9075 70Z"></path>
<path stroke-linecap="round" stroke-miterlimit="10" stroke-width="2" stroke="white" d="M40.944 63.4531C40.9284 63.4583 40.9179 63.4635 40.9023 63.474C40.8867 63.4635 40.8763 63.4583 40.8607 63.4531"></path>
<path stroke-dasharray="0.1 4.1" stroke-linecap="round" stroke-miterlimit="10" stroke-width="2" stroke="white" d="M37.3607 61.3229C30.6679 56.6615 19.7409 45.5573 19.095 22.8438"></path>
<path stroke-linecap="round" stroke-miterlimit="10" stroke-width="2" stroke="white" d="M19.069 20.7761C19.069 20.7605 19.069 20.7449 19.069 20.7345C19.0846 20.7345 19.1002 20.7292 19.1158 20.7292"></path>
<path stroke-dasharray="0.1 4" stroke-linecap="round" stroke-miterlimit="10" stroke-width="2" stroke="white" d="M23.0898 20.276C31.1628 19.1405 37.5221 16.927 40.9076 15.552C44.569 17.0364 51.694 19.5051 60.7096 20.5312"></path>
<path stroke-linecap="round" stroke-miterlimit="10" stroke-width="2" stroke="white" d="M62.6992 20.7292C62.7148 20.7292 62.7305 20.7345 62.7461 20.7345C62.7461 20.7449 62.7461 20.7605 62.7461 20.7709"></path>
<path stroke-dasharray="0.1 4.08" stroke-linecap="round" stroke-miterlimit="10" stroke-width="2" stroke="white" d="M62.6159 24.8489C61.194 46.3958 48.8554 58.3489 42.7044 62.4062"></path>
<path stroke-miterlimit="10" stroke-width="3" stroke="white" d="M53.97 28.8594L38.3711 43.901L29.97 35.2812"></path>
</svg>
