<svg xmlns="http://www.w3.org/2000/svg" fill="none" viewBox="0 0 81 80" height="80" width="81">
<path fill="white" d="M39.8458 57C39.8458 57.5521 39.3979 58 38.8458 58C38.2937 58 37.8458 57.5521 37.8458 57C37.8458 56.4479 38.2937 56 38.8458 56C39.3979 56 39.8458 56.4479 39.8458 57Z"></path>
<path fill="white" d="M36.8458 56C36.8458 56.5521 36.3979 57 35.8458 57C35.2937 57 34.8458 56.5521 34.8458 56C34.8458 55.4479 35.2937 55 35.8458 55C36.3979 55 36.8458 55.4479 36.8458 56Z"></path>
<path fill="white" d="M33.8458 55C33.8458 55.5521 33.3979 56 32.8458 56C32.2937 56 31.8458 55.5521 31.8458 55C31.8458 54.4479 32.2937 54 32.8458 54C33.3979 54 33.8458 54.4479 33.8458 55Z"></path>
<path fill="white" d="M30.8458 54C30.8458 54.5521 30.3979 55 29.8458 55C29.2937 55 28.8458 54.5521 28.8458 54C28.8458 53.4479 29.2937 53 29.8458 53C30.3979 53 30.8458 53.4479 30.8458 54Z"></path>
<path stroke-linejoin="round" stroke-linecap="round" stroke-miterlimit="10" stroke-width="2" stroke="white" d="M8.84583 63L20.8458 59L45.6896 69.5104C45.7104 69.5156 45.7417 69.526 45.7677 69.5365C46.4031 69.8281 47.101 70 47.8458 70C48.6219 70 49.351 69.8073 50.0073 69.4896C50.075 69.4688 50.1427 69.4479 50.1896 69.4219L70.7573 58.5052L70.7521 58.4948C71.9917 57.8177 72.8458 56.5156 72.8458 55C72.8458 52.7917 71.0542 51 68.8458 51C68.2937 51 67.7677 51.1146 67.2885 51.3125L50.0177 58.4531L48.1844 57.1979C48.601 56.5625 48.8458 55.8125 48.8458 55C48.8458 53.4792 47.9865 52.1667 46.7312 51.4948C46.6844 51.4635 46.6427 51.4271 46.5906 51.3958C46.5906 51.3958 33.7156 44.9479 27.3875 41.9635C27.3771 41.9583 27.3667 41.9531 27.3562 41.9479C26.325 41.349 25.1271 41 23.8458 41C22.9656 41 22.1219 41.1719 21.3458 41.4688C21.3198 41.474 21.2885 41.474 21.2729 41.4792C19.0437 42.1615 8.84583 45 8.84583 45"></path>
<path stroke-linejoin="round" stroke-linecap="round" stroke-miterlimit="10" stroke-width="2" stroke="white" d="M48.2573 57.0886C47.1062 58.9688 44.7521 59.3699 42.7573 58.4115L42.0802 58.1355"></path>
<path stroke-miterlimit="10" stroke-width="2" stroke="white" d="M59.8458 18C59.8458 21.8646 56.7104 25 52.8458 25C48.9812 25 45.8458 21.8646 45.8458 18C45.8458 14.1354 48.9812 11 52.8458 11C56.7104 11 59.8458 14.1354 59.8458 18Z"></path>
<path stroke-miterlimit="10" stroke-width="2" stroke="white" d="M65.8458 42C65.8458 34.849 59.9969 29 52.8458 29C45.6948 29 39.8458 34.849 39.8458 42"></path>
<path fill="white" d="M61.8458 41C61.8458 41.5521 61.3979 42 60.8458 42C60.2937 42 59.8458 41.5521 59.8458 41C59.8458 40.4479 60.2937 40 60.8458 40C61.3979 40 61.8458 40.4479 61.8458 41Z"></path>
<path fill="white" d="M57.8458 41C57.8458 41.5521 57.3979 42 56.8458 42C56.2937 42 55.8458 41.5521 55.8458 41C55.8458 40.4479 56.2937 40 56.8458 40C57.3979 40 57.8458 40.4479 57.8458 41Z"></path>
<path fill="white" d="M53.8458 41C53.8458 41.5521 53.3979 42 52.8458 42C52.2937 42 51.8458 41.5521 51.8458 41C51.8458 40.4479 52.2937 40 52.8458 40C53.3979 40 53.8458 40.4479 53.8458 41Z"></path>
<path fill="white" d="M49.8458 41C49.8458 41.5521 49.3979 42 48.8458 42C48.2937 42 47.8458 41.5521 47.8458 41C47.8458 40.4479 48.2937 40 48.8458 40C49.3979 40 49.8458 40.4479 49.8458 41Z"></path>
<path fill="white" d="M45.8458 41C45.8458 41.5521 45.3979 42 44.8458 42C44.2937 42 43.8458 41.5521 43.8458 41C43.8458 40.4479 44.2937 40 44.8458 40C45.3979 40 45.8458 40.4479 45.8458 41Z"></path>
</svg>
