<svg xmlns="http://www.w3.org/2000/svg" fill="none" viewBox="0 0 81 80" height="80" width="81">
<path stroke-miterlimit="10" stroke-width="2" stroke="white" d="M41.2972 58.1875L47.8129 73.5365L52.9691 66L61.9691 67L54.9691 51"></path>
<path stroke-miterlimit="10" stroke-width="2" stroke="white" d="M26.3545 52.1719L19.9691 67L28.9691 66L34.1254 73.5365L40.6983 58.0885"></path>
<path stroke-miterlimit="10" stroke-width="2" stroke="white" d="M15.7972 34.0051L18.3024 36.5103L16.9482 39.776C16.3493 41.2239 17.0316 42.8853 18.4795 43.4843L21.9691 44.8385V49.1614C21.9691 50.7291 23.2399 51.9999 24.8076 51.9999H28.1305L29.4847 54.4843C30.0837 55.9322 31.7451 56.6197 33.193 56.0208L36.4587 54.6666L38.9639 57.1666C40.0732 58.276 41.8649 58.276 42.9743 57.1666L45.4795 54.6666L48.7451 56.0208C50.193 56.6197 51.8545 55.9322 52.4535 54.4843L53.8076 50.8385H56.9691C58.5368 50.8385 59.8076 49.5676 59.8076 47.9999V44.8385L63.4535 43.4843C64.9014 42.8853 65.5889 41.2239 64.9899 39.776L63.6357 36.5051L66.1357 34.0051C67.2451 32.8958 67.2451 31.0989 66.1357 29.9947L63.6357 27.4895L64.9899 24.2187C65.5889 22.7708 64.9014 21.1145 63.4535 20.5155L59.9691 19.1614V15.8385C59.9691 14.2708 58.6982 12.9999 57.1305 12.9999H53.8076L52.4535 9.51554C51.8545 8.06763 50.193 7.38013 48.7451 7.97909L45.4795 9.33325L42.9743 6.83325C41.8649 5.72388 40.0732 5.72388 38.9639 6.83325L36.4587 9.33325L33.193 7.97909C31.7451 7.38013 30.0837 8.06763 29.4847 9.51554L28.1305 12.9999H24.8076C23.2399 12.9999 21.9691 14.2708 21.9691 15.8385V19.1614L18.4847 20.5155C17.0368 21.1145 16.3493 22.776 16.9482 24.2239L18.3024 27.4895L15.8024 29.9947C14.693 31.1041 14.693 32.8958 15.7972 34.0051Z"></path>
<path stroke-miterlimit="10" stroke-width="3" stroke="white" d="M51.9691 25L37.9691 39L29.9691 31"></path>
<path stroke-dasharray="1 4" stroke-linecap="round" stroke-miterlimit="4.80973" stroke-width="2" stroke="white" d="M58.9691 32C58.9691 41.9427 50.9118 50 40.9691 50C31.0264 50 22.9691 41.9427 22.9691 32C22.9691 22.0573 31.0264 14 40.9691 14C50.9118 14 58.9691 22.0573 58.9691 32Z"></path>
</svg>
